M48
; DRILL file KiCad 10.0.2 date 2026-08-17T16:59:25
; FORMAT={-:-/ absolute / metric / decimal}
; #@! TF.CreationDate,2026-08-17T16:59:25+01:00
; #@! TF.GenerationSoftware,Kicad,Pcbnew,10.0.2
; #@! TF.FileFunction,Plated,1,2,PTH
FMAT,2
METRIC
; #@! TA.AperFunction,Plated,PTH,ViaDrill
T1C0.400
; #@! TA.AperFunction,Plated,PTH,ComponentDrill
T2C0.840
; #@! TA.AperFunction,Plated,PTH,ComponentDrill
T3C1.000
%
G90
G05
T1
X101.0Y-109.25
X101.0Y-121.0
X102.25Y-118.5
X106.3Y-121.4
X106.5Y-105.25
X111.0Y-103.5
X111.0Y-119.5
X113.0Y-101.5
X113.962Y-113.25
X114.75Y-119.5
X116.75Y-102.0
X125.6Y-111.0
X125.7Y-119.1
T2
X105.38Y-101.615
X105.38Y-104.155
X105.38Y-106.695
X105.38Y-109.235
X105.38Y-111.775
X105.38Y-114.315
X105.38Y-116.855
X105.38Y-119.395
X120.62Y-101.615
X120.62Y-104.155
X120.62Y-106.695
X120.62Y-109.235
X120.62Y-111.775
X120.62Y-114.315
X120.62Y-116.855
X120.62Y-119.395
T3
X107.62Y-126.08
X110.16Y-126.08
X112.7Y-126.08
X115.24Y-126.08
X117.78Y-126.08
X125.6Y-101.76
X125.6Y-104.3
X125.6Y-106.84
X125.6Y-109.38
M30
