%TF.GenerationSoftware,KiCad,Pcbnew,10.0.2*%
%TF.CreationDate,2026-08-17T16:59:21+01:00*%
%TF.ProjectId,sh,73682e6b-6963-4616-945f-706362585858,rev?*%
%TF.SameCoordinates,Original*%
%TF.FileFunction,Legend,Bot*%
%TF.FilePolarity,Positive*%
%FSLAX46Y46*%
G04 Gerber Fmt 4.6, Leading zero omitted, Abs format (unit mm)*
G04 Created by KiCad (PCBNEW 10.0.2) date 2026-08-17 16:59:21*
%MOMM*%
%LPD*%
G01*
G04 APERTURE LIST*
%ADD10C,0.200000*%
%ADD11C,0.100000*%
%ADD12C,0.120000*%
%ADD13O,3.500000X1.400000*%
%ADD14R,1.700000X1.700000*%
%ADD15C,1.700000*%
%ADD16C,3.200000*%
G04 APERTURE END LIST*
D10*
G36*
X125679487Y-113045000D02*
G01*
X125953070Y-113045000D01*
X125950963Y-112768303D01*
X125679487Y-112768303D01*
X125607612Y-112759257D01*
X125554008Y-112734414D01*
X125513110Y-112691631D01*
X125481742Y-112621849D01*
X125464780Y-112536518D01*
X125458112Y-112411647D01*
X125458112Y-112182486D01*
X125461626Y-112087669D01*
X125470935Y-112016065D01*
X125488110Y-111952444D01*
X125510410Y-111907072D01*
X125541509Y-111871409D01*
X125581119Y-111846988D01*
X125627741Y-111832984D01*
X125685624Y-111827937D01*
X125958199Y-111827937D01*
X125958199Y-111550233D01*
X125685624Y-111550233D01*
X125599003Y-111555182D01*
X125519919Y-111569542D01*
X125447396Y-111592823D01*
X125379000Y-111625825D01*
X125317585Y-111667468D01*
X125262473Y-111718120D01*
X125215093Y-111776193D01*
X125175134Y-111842431D01*
X125142581Y-111917788D01*
X125119793Y-111996895D01*
X125105520Y-112085427D01*
X125100540Y-112184685D01*
X125100540Y-112411556D01*
X125105501Y-112510124D01*
X125119757Y-112598531D01*
X125142581Y-112677994D01*
X125175130Y-112753671D01*
X125214916Y-112819892D01*
X125261924Y-112877663D01*
X125316629Y-112928018D01*
X125377532Y-112969478D01*
X125445289Y-113002410D01*
X125555223Y-113034050D01*
X125679487Y-113045000D01*
G37*
G36*
X125748089Y-111550233D02*
G01*
X125748089Y-113045000D01*
X126098517Y-113045000D01*
X126098517Y-111550233D01*
X125748089Y-111550233D01*
G37*
G36*
X125603798Y-114237951D02*
G01*
X125253371Y-114237951D01*
X125260723Y-114348753D01*
X125282860Y-114443676D01*
X125318492Y-114525364D01*
X125368785Y-114598444D01*
X125430386Y-114657875D01*
X125504422Y-114704883D01*
X125586411Y-114737808D01*
X125679328Y-114758339D01*
X125785149Y-114765516D01*
X125870976Y-114760199D01*
X125947411Y-114744920D01*
X126015775Y-114720362D01*
X126079291Y-114685634D01*
X126135423Y-114642062D01*
X126184852Y-114589112D01*
X126225969Y-114529092D01*
X126260549Y-114459882D01*
X126288350Y-114380284D01*
X126313998Y-114252924D01*
X126323155Y-114101755D01*
X126323155Y-113893477D01*
X126313366Y-113743266D01*
X126285785Y-113615498D01*
X126239380Y-113499584D01*
X126179173Y-113406213D01*
X126129528Y-113353087D01*
X126073736Y-113309502D01*
X126011195Y-113274871D01*
X125943909Y-113250133D01*
X125870614Y-113234943D01*
X125790278Y-113229717D01*
X125677699Y-113237498D01*
X125582157Y-113259435D01*
X125500850Y-113294105D01*
X125427998Y-113343307D01*
X125367750Y-113404622D01*
X125319042Y-113479303D01*
X125284260Y-113562158D01*
X125261320Y-113657956D01*
X125251356Y-113769005D01*
X125601783Y-113769005D01*
X125602729Y-113676092D01*
X125614057Y-113614491D01*
X125638717Y-113565443D01*
X125675056Y-113534807D01*
X125722810Y-113517942D01*
X125790278Y-113511543D01*
X125836846Y-113516708D01*
X125873351Y-113531051D01*
X125903022Y-113555913D01*
X125927664Y-113595257D01*
X125944492Y-113643809D01*
X125957340Y-113712768D01*
X125966591Y-113891371D01*
X125966591Y-114101847D01*
X125959446Y-114282465D01*
X125948292Y-114351442D01*
X125932244Y-114400068D01*
X125907755Y-114439174D01*
X125876923Y-114464181D01*
X125838287Y-114478380D01*
X125785149Y-114483690D01*
X125728569Y-114478338D01*
X125683757Y-114463540D01*
X125647699Y-114436120D01*
X125620193Y-114390267D01*
X125605965Y-114331066D01*
X125603798Y-114237951D01*
G37*
G36*
X125705665Y-116192832D02*
G01*
X125476138Y-115050233D01*
X125082663Y-115050233D01*
X125496654Y-116545000D01*
X125748713Y-116545000D01*
X125705665Y-116192832D01*
G37*
G36*
X125898281Y-115050233D02*
G01*
X125667746Y-116192832D01*
X125622684Y-116545000D01*
X125877856Y-116545000D01*
X126289741Y-115050233D01*
X125898281Y-115050233D01*
G37*
G36*
X125146227Y-117547058D02*
G01*
X125146227Y-118170610D01*
X125248717Y-118250661D01*
X125321869Y-118292421D01*
X125418252Y-118331169D01*
X125525398Y-118356360D01*
X125658587Y-118365516D01*
X125782472Y-118355404D01*
X125889122Y-118326590D01*
X125954418Y-118295893D01*
X126012418Y-118256513D01*
X126063878Y-118208071D01*
X126107247Y-118152110D01*
X126144357Y-118085907D01*
X126174978Y-118008036D01*
X126195818Y-117926717D01*
X126209164Y-117832105D01*
X126213904Y-117722272D01*
X126213904Y-117474976D01*
X126209139Y-117365881D01*
X126195665Y-117271059D01*
X126174520Y-117188754D01*
X126143524Y-117109815D01*
X126106366Y-117043326D01*
X126063328Y-116987711D01*
X126012397Y-116939283D01*
X125955904Y-116899931D01*
X125893244Y-116869193D01*
X125791152Y-116839888D01*
X125674982Y-116829717D01*
X125556512Y-116837263D01*
X125459569Y-116858152D01*
X125380425Y-116890442D01*
X125309522Y-116937140D01*
X125252424Y-116994878D01*
X125207776Y-117064740D01*
X125176540Y-117142464D01*
X125155954Y-117233331D01*
X125147234Y-117339696D01*
X125483374Y-117339696D01*
X125492247Y-117258647D01*
X125507920Y-117202493D01*
X125533675Y-117157098D01*
X125566355Y-117128670D01*
X125607636Y-117112390D01*
X125662617Y-117106413D01*
X125707838Y-117111207D01*
X125746148Y-117124915D01*
X125778935Y-117148644D01*
X125807606Y-117186006D01*
X125828686Y-117232855D01*
X125845525Y-117299396D01*
X125854836Y-117374141D01*
X125858347Y-117472869D01*
X125858347Y-117722363D01*
X125854996Y-117820145D01*
X125846074Y-117894829D01*
X125829509Y-117961247D01*
X125808155Y-118007761D01*
X125777999Y-118044333D01*
X125739554Y-118069310D01*
X125693413Y-118083561D01*
X125632942Y-118088819D01*
X125595889Y-118086019D01*
X125568370Y-118078561D01*
X125525322Y-118054931D01*
X125496654Y-118036429D01*
X125496654Y-117793988D01*
X125674982Y-117793988D01*
X125674982Y-117547058D01*
X125146227Y-117547058D01*
G37*
D11*
X113433333Y-109857419D02*
X113433333Y-110571704D01*
X113433333Y-110571704D02*
X113480952Y-110714561D01*
X113480952Y-110714561D02*
X113576190Y-110809800D01*
X113576190Y-110809800D02*
X113719047Y-110857419D01*
X113719047Y-110857419D02*
X113814285Y-110857419D01*
X112433333Y-110857419D02*
X113004761Y-110857419D01*
X112719047Y-110857419D02*
X112719047Y-109857419D01*
X112719047Y-109857419D02*
X112814285Y-110000276D01*
X112814285Y-110000276D02*
X112909523Y-110095514D01*
X112909523Y-110095514D02*
X113004761Y-110143133D01*
%TO.C,J1*%
D12*
X103780000Y-99025000D02*
X122220000Y-99025000D01*
X122220000Y-121985000D01*
X103780000Y-121985000D01*
X103780000Y-99025000D01*
%TD*%
%LPC*%
D13*
%TO.C,J1*%
X104380000Y-119395000D03*
X104380000Y-116855000D03*
X104380000Y-114315000D03*
X104380000Y-111775000D03*
X104380000Y-106695000D03*
X104380000Y-109235000D03*
X121620000Y-101615000D03*
X104380000Y-101615000D03*
X121620000Y-104155000D03*
X121620000Y-106695000D03*
X121620000Y-109235000D03*
X121620000Y-111775000D03*
X121620000Y-114315000D03*
X121620000Y-116855000D03*
X121620000Y-119395000D03*
X104380000Y-104155000D03*
%TD*%
D14*
%TO.C,J2*%
X107620000Y-126080000D03*
D15*
X110160000Y-126080000D03*
X112700000Y-126080000D03*
X115240000Y-126080000D03*
X117780000Y-126080000D03*
%TD*%
D16*
%TO.C,REF\u002A\u002A*%
X102000000Y-125500000D03*
%TD*%
D14*
%TO.C,J3*%
X125600000Y-101760000D03*
D15*
X125600000Y-104300000D03*
X125600000Y-106840000D03*
X125600000Y-109380000D03*
%TD*%
D16*
%TO.C,REF\u002A\u002A*%
X124000000Y-125500000D03*
%TD*%
%LPD*%
M02*
